External Loads File
version=1
nRows=94
nColumns=13
Range=5.000000e-03-10 seconds
endheader
time 	forceRightX 	forceRightY 	forceRightZ 	pointRightX 	pointRightY 	pointRightZ 	forceLeftX 	forceLeftY 	forceLeftZ 	pointLeftX 	pointLeftY 	pointLeftZ 		
0.005000 31.081524 112.811668 -0.000000 0.343209 0.403198 -0.124094 24.545581 142.143927 -0.000000 0.052414 0.228383 -0.358129
0.010000 30.407934 113.220930 -0.000000 0.343204 0.403190 -0.124081 26.292522 143.521435 -0.000000 0.052407 0.228377 -0.358122
0.015000 29.750823 113.610928 -0.000000 0.343207 0.403181 -0.124083 27.815408 144.728630 -0.000000 0.052411 0.228388 -0.358117
0.020000 29.133053 113.957960 -0.000000 0.343097 0.403049 -0.123814 29.093882 145.721570 -0.000000 0.052432 0.228396 -0.358108
0.025000 26.611445 114.715541 -0.000000 0.343037 0.403289 -0.123843 27.657342 146.998281 -0.000000 0.053462 0.222777 -0.353542
0.030000 27.931883 114.507713 -0.000000 0.343056 0.403273 -0.123818 30.845290 147.119773 -0.000000 0.052351 0.228446 -0.358047
0.035000 27.469635 114.720363 -0.000000 0.343045 0.403287 -0.123825 31.352741 147.497565 -0.000000 0.052323 0.228465 -0.358056
0.040000 27.134011 114.926842 -0.000000 0.343055 0.403260 -0.123845 31.564406 147.657716 -0.000000 0.052308 0.228478 -0.358060
0.045000 26.914897 115.143049 -0.000000 0.343057 0.403262 -0.123842 31.510505 147.649328 -0.000000 0.052299 0.228506 -0.358082
0.050000 26.807767 115.358462 -0.000000 0.343061 0.403241 -0.123846 31.304633 147.538210 -0.000000 0.052287 0.228514 -0.358083
0.055000 26.784181 115.549026 -0.000000 0.343072 0.403244 -0.123832 31.038214 147.382011 -0.000000 0.052263 0.228541 -0.358085
0.060000 26.812353 115.691901 -0.000000 0.343085 0.403221 -0.123827 30.766302 147.215463 -0.000000 0.052257 0.228552 -0.358078
0.065000 26.865676 115.780520 -0.000000 0.343090 0.403209 -0.123821 30.528863 147.062169 -0.000000 0.052243 0.228569 -0.358095
0.070000 26.916796 115.819372 -0.000000 0.343114 0.403192 -0.123827 30.377204 146.949168 -0.000000 0.052229 0.228582 -0.358093
0.075000 26.917123 115.814022 -0.000000 0.343119 0.403189 -0.123831 30.331543 146.899800 -0.000000 0.052213 0.228597 -0.358091
0.080000 26.851795 115.761670 -0.000000 0.343136 0.403173 -0.123823 30.396748 146.902873 -0.000000 0.052197 0.228616 -0.358098
0.085000 26.711424 115.669762 -0.000000 0.343152 0.403160 -0.123820 30.525343 146.938899 -0.000000 0.052188 0.228640 -0.358101
0.090000 26.515194 115.548577 -0.000000 0.343150 0.403142 -0.123815 30.690940 146.999126 -0.000000 0.052176 0.228666 -0.358098
0.095000 26.271210 115.411714 -0.000000 0.343158 0.403139 -0.123808 30.852217 147.083940 -0.000000 0.052188 0.228661 -0.358153
0.100000 26.026058 115.267207 -0.000000 0.343159 0.403140 -0.123833 31.007128 147.172819 -0.000000 0.052183 0.228681 -0.358157
0.105000 25.795407 115.138175 -0.000000 0.343163 0.403133 -0.123829 31.113404 147.253864 -0.000000 0.052176 0.228660 -0.358169
0.110000 25.641160 115.039980 -0.000000 0.343167 0.403127 -0.123827 31.210815 147.319316 -0.000000 0.052171 0.228683 -0.358170
0.115000 25.577823 114.993331 -0.000000 0.343160 0.403111 -0.123816 31.314404 147.390615 -0.000000 0.052169 0.228669 -0.358097
0.120000 25.636023 115.007140 -0.000000 0.343160 0.403124 -0.123827 31.463927 147.478359 -0.000000 0.052178 0.228673 -0.358091
0.125000 25.820555 115.087885 -0.000000 0.343159 0.403145 -0.123825 31.622516 147.565404 -0.000000 0.052184 0.228655 -0.358096
0.130000 26.141196 115.232095 -0.000000 0.343130 0.403144 -0.123891 31.738826 147.607193 -0.000000 0.052185 0.228660 -0.358100
0.135000 26.559404 115.435233 -0.000000 0.343126 0.403151 -0.123909 31.758503 147.587040 -0.000000 0.052186 0.228657 -0.358103
0.140000 27.025850 115.682805 -0.000000 0.343126 0.403171 -0.123907 31.703128 147.523181 -0.000000 0.052182 0.228648 -0.358098
0.145000 27.492088 115.955475 -0.000000 0.343110 0.403172 -0.123899 31.632690 147.446431 -0.000000 0.052186 0.228632 -0.358102
0.150000 27.915289 116.236955 -0.000000 0.343088 0.403197 -0.123896 31.578866 147.377683 -0.000000 0.052188 0.228638 -0.358101
0.155000 28.268323 116.512379 -0.000000 0.343076 0.403208 -0.123896 31.538537 147.326405 -0.000000 0.052193 0.228626 -0.358103
0.160000 28.543075 116.767031 -0.000000 0.343073 0.403217 -0.123893 31.520519 147.311839 -0.000000 0.052198 0.228622 -0.358113
0.165000 28.730953 116.993778 -0.000000 0.343053 0.403232 -0.123897 31.549546 147.374861 -0.000000 0.052204 0.228601 -0.358116
0.170000 28.858137 117.181093 -0.000000 0.343041 0.403245 -0.123905 31.671881 147.531674 -0.000000 0.052204 0.228579 -0.358106
0.175000 28.941650 117.319257 -0.000000 0.343039 0.403259 -0.123900 31.860517 147.753821 -0.000000 0.052205 0.228577 -0.358098
0.180000 28.977558 117.402902 -0.000000 0.343044 0.403260 -0.123979 32.044050 147.994549 -0.000000 0.052202 0.228555 -0.358108
0.185000 28.952180 117.426598 -0.000000 0.343024 0.403271 -0.123896 32.186689 148.223560 -0.000000 0.052215 0.228552 -0.358102
0.190000 28.866555 117.383507 -0.000000 0.343019 0.403285 -0.123895 32.305497 148.423638 -0.000000 0.052206 0.228551 -0.358113
0.195000 28.715312 117.281540 -0.000000 0.343024 0.403284 -0.123900 32.391977 148.582650 -0.000000 0.052216 0.228554 -0.358118
0.200000 28.498780 117.141720 -0.000000 0.343021 0.403288 -0.123902 32.412570 148.687320 -0.000000 0.052220 0.228534 -0.358112
0.205000 28.255823 116.979993 -0.000000 0.343033 0.403292 -0.123899 32.376742 148.725983 -0.000000 0.052223 0.228520 -0.358113
0.210000 28.019093 116.804390 -0.000000 0.343050 0.403288 -0.123897 32.328483 148.713051 -0.000000 0.052223 0.228530 -0.358114
0.215000 27.774171 116.619479 -0.000000 0.343058 0.403288 -0.123895 32.289125 148.683949 -0.000000 0.052225 0.228518 -0.358118
0.220000 27.524329 116.419528 -0.000000 0.343071 0.403279 -0.123891 32.265971 148.641933 -0.000000 0.052240 0.228505 -0.358115
0.225000 27.261678 116.203017 -0.000000 0.343083 0.403292 -0.123896 32.205976 148.567958 -0.000000 0.052242 0.228505 -0.358106
0.230000 26.989980 115.968893 -0.000000 0.343093 0.403276 -0.123901 32.098072 148.454712 -0.000000 0.052246 0.228494 -0.358123
0.235000 26.712446 115.722037 -0.000000 0.343108 0.403278 -0.123890 31.981443 148.323533 -0.000000 0.052248 0.228497 -0.358108
0.240000 26.430220 115.477528 -0.000000 0.343073 0.403271 -0.123945 31.883352 148.197378 -0.000000 0.052260 0.228491 -0.358111
0.245000 26.198042 115.255329 -0.000000 0.343081 0.403267 -0.123926 31.825235 148.064285 -0.000000 0.052272 0.228497 -0.358118
0.250000 26.042893 115.094174 -0.000000 0.343082 0.403283 -0.123953 31.737204 147.910327 -0.000000 0.052286 0.228485 -0.358103
0.255000 26.023716 115.012639 -0.000000 0.343093 0.403281 -0.123941 31.642017 147.735607 -0.000000 0.052292 0.228482 -0.358114
0.260000 26.124133 115.017260 -0.000000 0.343095 0.403272 -0.123942 31.584640 147.599580 -0.000000 0.052307 0.228468 -0.358115
0.265000 26.316692 115.091000 -0.000000 0.343101 0.403284 -0.123950 31.640510 147.558216 -0.000000 0.052311 0.228453 -0.358110
0.270000 26.555985 115.198155 -0.000000 0.343088 0.403297 -0.123949 31.787230 147.598965 -0.000000 0.052316 0.228450 -0.358110
0.275000 26.788532 115.289301 -0.000000 0.343076 0.403296 -0.123947 31.917153 147.647713 -0.000000 0.052315 0.228450 -0.358114
0.280000 26.950059 115.329556 -0.000000 0.343064 0.403307 -0.123943 31.919136 147.649403 -0.000000 0.052317 0.228448 -0.358116
0.285000 27.033345 115.312939 -0.000000 0.343050 0.403326 -0.123934 31.789384 147.594514 -0.000000 0.052320 0.228459 -0.358102
0.290000 27.062626 115.264309 -0.000000 0.343039 0.403333 -0.123950 31.565761 147.505658 -0.000000 0.052318 0.228453 -0.358108
0.295000 27.082139 115.209892 -0.000000 0.343062 0.403345 -0.123909 31.302381 147.404247 -0.000000 0.052307 0.228445 -0.358105
0.300000 27.111361 115.165443 -0.000000 0.343042 0.403352 -0.123889 31.030036 147.306338 -0.000000 0.052309 0.228474 -0.358109
0.305000 27.143112 115.143126 -0.000000 0.343022 0.403350 -0.123886 30.775802 147.237462 -0.000000 0.052310 0.228461 -0.358102
0.310000 27.192498 115.161597 -0.000000 0.343007 0.403355 -0.123896 30.614727 147.234692 -0.000000 0.052306 0.228448 -0.358105
0.315000 27.278054 115.252153 -0.000000 0.342974 0.403360 -0.123897 30.591369 147.322036 -0.000000 0.052295 0.228460 -0.358105
0.320000 27.381390 115.438732 -0.000000 0.342963 0.403366 -0.123886 30.639763 147.478112 -0.000000 0.052297 0.228432 -0.358111
0.325000 27.500562 115.702375 -0.000000 0.342933 0.403370 -0.123881 30.700898 147.640370 -0.000000 0.052284 0.228454 -0.358103
0.330000 27.592620 116.009318 -0.000000 0.342905 0.403359 -0.123885 30.716400 147.784360 -0.000000 0.052282 0.228465 -0.358107
0.335000 27.656927 116.320888 -0.000000 0.342905 0.403355 -0.123883 30.729070 147.920782 -0.000000 0.052271 0.228474 -0.358106
0.340000 27.703625 116.609917 -0.000000 0.342895 0.403341 -0.123865 30.778184 148.058624 -0.000000 0.052250 0.228480 -0.358115
0.345000 27.743082 116.851420 -0.000000 0.342900 0.403338 -0.123871 30.856617 148.172367 -0.000000 0.052245 0.228519 -0.358114
0.350000 27.768999 117.018369 -0.000000 0.342932 0.403299 -0.123876 30.929682 148.229464 -0.000000 0.052236 0.228536 -0.358113
0.355000 27.744857 117.091860 -0.000000 0.342943 0.403286 -0.123866 30.974538 148.240760 -0.000000 0.052217 0.228549 -0.358102
0.360000 27.683046 117.057150 -0.000000 0.342969 0.403256 -0.123859 31.074002 148.244109 -0.000000 0.052207 0.228576 -0.358109
0.365000 27.578306 116.928298 -0.000000 0.343002 0.403236 -0.123866 31.247482 148.271141 -0.000000 0.052197 0.228592 -0.358099
0.370000 27.455576 116.732551 -0.000000 0.343031 0.403215 -0.123864 31.448121 148.294709 -0.000000 0.052196 0.228600 -0.358112
0.375000 27.364119 116.499162 -0.000000 0.343071 0.403180 -0.123869 31.611841 148.258783 -0.000000 0.052186 0.228629 -0.358118
0.380000 27.296799 116.262280 -0.000000 0.343090 0.403166 -0.123871 31.676558 148.156106 -0.000000 0.052174 0.228656 -0.358106
0.385000 27.244897 116.036179 -0.000000 0.343116 0.403157 -0.123885 31.691065 148.019293 -0.000000 0.052177 0.228662 -0.358113
0.390000 27.185898 115.821732 -0.000000 0.343139 0.403154 -0.123891 31.724474 147.883542 -0.000000 0.052181 0.228679 -0.358112
0.395000 27.089485 115.619166 -0.000000 0.343152 0.403129 -0.123894 31.794326 147.762304 -0.000000 0.052189 0.228695 -0.358125
0.400000 26.919501 115.436794 -0.000000 0.343151 0.403132 -0.123884 31.852957 147.660538 -0.000000 0.052202 0.228690 -0.358118
0.405000 26.708163 115.273435 -0.000000 0.343163 0.403130 -0.123885 31.902205 147.569361 -0.000000 0.052206 0.228670 -0.358112
0.410000 26.491425 115.132248 -0.000000 0.343172 0.403130 -0.123903 31.921788 147.477093 -0.000000 0.052214 0.228673 -0.358106
0.415000 26.286356 115.025506 -0.000000 0.343157 0.403136 -0.123896 31.838228 147.362036 -0.000000 0.052227 0.228644 -0.358121
0.420000 26.140851 114.955269 -0.000000 0.343145 0.403153 -0.123891 31.628971 147.192022 -0.000000 0.052239 0.228635 -0.358116
0.425000 26.059904 114.923310 -0.000000 0.343130 0.403160 -0.123886 31.301772 146.981127 -0.000000 0.052258 0.228625 -0.358101
0.430000 26.047071 114.933265 -0.000000 0.343106 0.403156 -0.123874 30.941099 146.784674 -0.000000 0.052257 0.228610 -0.358120
0.435000 26.099261 115.004395 -0.000000 0.343084 0.403187 -0.123882 30.614715 146.661100 -0.000000 0.052264 0.228599 -0.358121
0.440000 26.247248 115.147574 -0.000000 0.343051 0.403203 -0.123873 30.382088 146.623165 -0.000000 0.052255 0.228597 -0.358131
0.445000 26.472695 115.359478 -0.000000 0.343026 0.403228 -0.123871 30.219061 146.661434 -0.000000 0.052263 0.228591 -0.358124
0.450000 26.763876 115.606800 -0.000000 0.343007 0.403232 -0.123870 30.143124 146.759235 -0.000000 0.052270 0.228588 -0.358115
0.455000 27.068114 115.857806 -0.000000 0.342994 0.403247 -0.123855 30.171637 146.925673 -0.000000 0.052262 0.228569 -0.358123
0.460000 27.364468 116.096202 -0.000000 0.342952 0.403253 -0.123863 30.346477 147.163763 -0.000000 0.052254 0.228561 -0.358121
0.465000 27.660748 116.330849 -0.000000 0.342939 0.403271 -0.123869 30.660108 147.451136 -0.000000 0.052245 0.228561 -0.358116
0.470000 27.970001 116.571381 -0.000000 0.342926 0.403268 -0.123866 31.079837 147.759729 -0.000000 0.052239 0.228568 -0.358120
